<svg xmlns="http://www.w3.org/2000/svg" width="1200" height="800" viewBox="0 0 1200 800" role="img" aria-label="Document querying illustration">
  <defs>
    <linearGradient id="bg" x1="0" y1="0" x2="1" y2="1">
      <stop offset="0" stop-color="#f2efff" />
      <stop offset="1" stop-color="#f7efe6" />
    </linearGradient>
    <linearGradient id="accent" x1="0" y1="0" x2="1" y2="1">
      <stop offset="0" stop-color="#6b5b95" />
      <stop offset="1" stop-color="#e06c4e" />
    </linearGradient>
  </defs>
  <rect width="1200" height="800" rx="48" fill="url(#bg)" />

  <!-- Document stack -->
  <rect x="160" y="180" width="360" height="460" rx="26" fill="#ffffff" stroke="#e2dced" />
  <rect x="190" y="230" width="300" height="20" rx="10" fill="#efe6ff" />
  <rect x="190" y="270" width="260" height="18" rx="9" fill="#efe6ff" />
  <rect x="190" y="310" width="280" height="18" rx="9" fill="#efe6ff" />
  <rect x="190" y="350" width="240" height="18" rx="9" fill="#efe6ff" />

  <rect x="220" y="210" width="360" height="460" rx="26" fill="#ffffff" stroke="#e2dced" opacity="0.7" />

  <!-- Search panel -->
  <rect x="620" y="220" width="420" height="260" rx="26" fill="#ffffff" stroke="#e2dced" />
  <rect x="660" y="270" width="300" height="20" rx="10" fill="#efe6ff" />
  <rect x="660" y="310" width="240" height="18" rx="9" fill="#efe6ff" />

  <!-- Magnifier -->
  <circle cx="880" cy="560" r="70" fill="#ffffff" stroke="url(#accent)" stroke-width="10" />
  <line x1="930" y1="610" x2="1000" y2="680" stroke="url(#accent)" stroke-width="12" stroke-linecap="round" />
  <rect x="620" y="520" width="200" height="120" rx="20" fill="#ffffff" stroke="#e2dced" />
  <rect x="650" y="560" width="140" height="18" rx="9" fill="#efe6ff" />
</svg>
